<?xml version="1.0" encoding="UTF-8" standalone="no"?>
<svg
   xmlns:dc="http://purl.org/dc/elements/1.1/"
   xmlns:cc="http://creativecommons.org/ns#"
   xmlns:rdf="http://www.w3.org/1999/02/22-rdf-syntax-ns#"
   xmlns:svg="http://www.w3.org/2000/svg"
   xmlns="http://www.w3.org/2000/svg"
   xmlns:sodipodi="http://sodipodi.sourceforge.net/DTD/sodipodi-0.dtd"
   xmlns:inkscape="http://www.inkscape.org/namespaces/inkscape"
   width="512"
   height="448"
   viewBox="0 0 12.7 11.1125"
   id="svg4141"
   version="1.1"
   inkscape:version="0.91+devel+osxmenu r12911"
   sodipodi:docname="driebroek_logo.svg">
  <metadata
     id="metadata4153">
    <rdf:RDF>
      <cc:Work
         rdf:about="">
        <dc:format>image/svg+xml</dc:format>
        <dc:type
           rdf:resource="http://purl.org/dc/dcmitype/StillImage" />
        <dc:title></dc:title>
      </cc:Work>
    </rdf:RDF>
  </metadata>
  <defs
     id="defs4151" />
  <sodipodi:namedview
     pagecolor="#ffffff"
     bordercolor="#666666"
     borderopacity="1"
     objecttolerance="10"
     gridtolerance="10"
     guidetolerance="10"
     inkscape:pageopacity="0"
     inkscape:pageshadow="2"
     inkscape:window-width="640"
     inkscape:window-height="480"
     id="namedview4149"
     showgrid="false"
     inkscape:zoom="1.2402344"
     inkscape:cx="256"
     inkscape:cy="256"
     inkscape:current-layer="svg4141" />
  <g
     id="g4143"
     style="fill:none;stroke:#000000;stroke-width:0.26499999;stroke-linecap:round;stroke-linejoin:round"
     transform="translate(0,-1.5875)">
    <path
       d="m 6.35,1.8 6.218,10.768 -12.436,0 z"
       id="path4145"
       inkscape:connector-curvature="0" />
    <path
       d="m 7.197,10.38 c 0.07,0.694 -0.305,1.347 -0.848,1.347 -0.543,0 -0.918,-0.653 -0.848,-1.347 C 5.531,10.083 5.641,9.817 5.803,9.632 5.957,9.456 6.151,9.36 6.349,9.36 c 0.197,0 0.39,0.096 0.545,0.272 0.162,0.185 0.272,0.45 0.302,0.748 m -4.321,-1.02 -1.112,2.367 0.655,0 c 0.655,0 1.15,-1.474 0.594,-1.474 l -0.556,0 0.37,0 c 0.557,0 0.877,-0.893 0.38,-0.893 l -0.33,0 M 3.51,11.727 4.2,9.36 l 0.495,0 c 0.497,0 0.357,0.893 -0.2,0.893 l -0.555,0 0.37,0 0.292,1.474 m 3.733,-2.367 -0.827,0 0.37,2.367 1.092,0 m -1.322,-1.474 0.834,0 M 8.83,9.36 9.626,11.727 m 0.032,-2.367 -0.342,0.893 1.62,1.474 M 5.38,4.85 l 1.764,0 -1.234,1.236 0.44,0 c 0.53,0 1.058,0.53 1.058,1.06 0,0.528 -0.53,1.057 -1.058,1.057 -0.53,0 -1.063,-0.46 -1.058,-1.058"
       id="path4147"
       inkscape:connector-curvature="0" />
  </g>
</svg>
