<?xml version="1.0" encoding="UTF-8" standalone="no"?>
<!-- Created with Inkscape (http://www.inkscape.org/) -->

<svg
   xmlns:dc="http://purl.org/dc/elements/1.1/"
   xmlns:cc="http://creativecommons.org/ns#"
   xmlns:rdf="http://www.w3.org/1999/02/22-rdf-syntax-ns#"
   xmlns:svg="http://www.w3.org/2000/svg"
   xmlns="http://www.w3.org/2000/svg"
   xmlns:sodipodi="http://sodipodi.sourceforge.net/DTD/sodipodi-0.dtd"
   xmlns:inkscape="http://www.inkscape.org/namespaces/inkscape"
   width="512"
   height="512"
   viewBox="0 0 135.46666 135.46667"
   id="svg2"
   version="1.1"
   inkscape:version="0.91+devel+osxmenu r12911"
   sodipodi:docname="parkourdelft.svg">
  <defs
     id="defs4" />
  <sodipodi:namedview
     id="base"
     pagecolor="#ffffff"
     bordercolor="#666666"
     borderopacity="1.0"
     inkscape:pageopacity="0.0"
     inkscape:pageshadow="2"
     inkscape:zoom="1.2089844"
     inkscape:cx="256"
     inkscape:cy="256"
     inkscape:document-units="px"
     inkscape:current-layer="layer1"
     showgrid="false"
     units="px"
     inkscape:snap-nodes="false" />
  <metadata
     id="metadata7">
    <rdf:RDF>
      <cc:Work
         rdf:about="">
        <dc:format>image/svg+xml</dc:format>
        <dc:type
           rdf:resource="http://purl.org/dc/dcmitype/StillImage" />
        <dc:title />
      </cc:Work>
    </rdf:RDF>
  </metadata>
  <g
     inkscape:label="Laag 1"
     inkscape:groupmode="layer"
     id="layer1"
     transform="translate(0,-161.53332)">
    <path
       style="fill:#020202;stroke-width:3.77952743"
       d="m 133.79406,161.53508 c -0.53277,0.0277 -0.7991,0.43327 -1.18153,1.51639 -0.71573,2.02721 -1.33051,2.89056 -3.62314,5.09239 -4.65706,4.47266 -10.81533,8.37852 -18.29426,11.60279 -6.09083,2.62584 -13.311573,4.86963 -27.729153,8.61467 -19.144968,4.97291 -24.81095,6.97091 -36.480222,12.86782 -27.259319,13.77503 -42.5035915,31.43384 -45.97545248,53.25642 -0.21046,1.32286 -0.409861,4.38198 -0.479556,7.35871 -0.13952,5.95795 0.172232,9.3766 1.42213398,15.61784 1.578964,7.88439 2.491598,10.64864 3.516474,10.64864 1.308277,0 9.3637165,-7.0417 12.6404625,-13.84018 5.127938,-10.63928 2.382543,-26.21404 15.786515,-38.70765 4.142237,-3.86091 23.399292,-16.71647 29.794541,-15.8138 2.546238,0.3594 -2.483991,4.41983 -9.236432,9.53573 -6.66644,5.05077 -11.131224,7.59045 -15.430983,15.02666 -2.016814,3.48798 -2.741191,10.99738 -0.814421,14.24531 2.724195,4.59216 7.034698,6.84649 12.897602,6.81302 5.259324,-0.0301 11.82276,0.60181 20.079379,-10.21703 3.073792,-4.02767 6.067129,-8.35529 7.485219,-7.02055 1.22757,1.15545 -0.94185,8.15565 -7.105709,16.51328 -5.440867,7.37734 -8.692746,9.44987 -14.485927,14.92331 -1.919222,1.81329 -10.931135,13.874 -10.198024,15.57567 0.914365,2.12235 3.782328,1.99357 6.455828,1.67596 5.850695,-0.69508 10.796427,-2.33126 16.780358,-5.30241 13.131244,-6.52 25.537464,-18.32152 35.847707,-34.10144 4.05161,-6.201 7.91845,-13.46037 10.3667,-19.46172 1.39609,-3.42222 3.70003,-10.54924 3.70003,-11.4457 0,-0.4771 -0.17545,-1.06296 -0.40514,-1.34937 -0.64738,-0.8073 -1.47529,-0.43999 -3.85796,1.71152 -11.27381,10.17989 -23.635883,12.94899 -30.085583,6.73943 -2.28118,-2.19624 -3.5636,-5.75081 -3.5636,-9.87473 0,-5.75664 3.41203,-11.39338 10.92563,-18.05118 3.61756,-3.20543 8.194043,-6.69511 16.331393,-12.45194 14.81744,-10.48241 20.23517,-15.11207 23.61653,-20.18023 2.84489,-4.26406 3.97145,-10.91488 1.93641,-11.43082 -0.25078,-0.0635 -0.45822,-0.0959 -0.63582,-0.0868 z m -83.64879,81.91984 a 9.0043054,9.0042998 0 0 1 9.004098,9.00493 9.0043054,9.0042998 0 0 1 -9.004098,9.00408 9.0043054,9.0042998 0 0 1 -9.004094,-9.00408 9.0043054,9.0042998 0 0 1 9.004094,-9.00493 z"
       id="path4182"
       inkscape:connector-curvature="0" />
  </g>
</svg>
