<?xml version="1.0" encoding="UTF-8" standalone="no"?>
<!-- Created with Inkscape (http://www.inkscape.org/) -->

<svg
   xmlns:dc="http://purl.org/dc/elements/1.1/"
   xmlns:cc="http://creativecommons.org/ns#"
   xmlns:rdf="http://www.w3.org/1999/02/22-rdf-syntax-ns#"
   xmlns:svg="http://www.w3.org/2000/svg"
   xmlns="http://www.w3.org/2000/svg"
   xmlns:sodipodi="http://sodipodi.sourceforge.net/DTD/sodipodi-0.dtd"
   xmlns:inkscape="http://www.inkscape.org/namespaces/inkscape"
   width="64"
   height="64"
   viewBox="0 0 16.933333 16.933334"
   id="svg2"
   version="1.1"
   inkscape:version="0.91+devel+osxmenu r12911"
   sodipodi:docname="phone.svg">
  <defs
     id="defs4" />
  <sodipodi:namedview
     id="base"
     pagecolor="#ffffff"
     bordercolor="#666666"
     borderopacity="1.0"
     inkscape:pageopacity="0.0"
     inkscape:pageshadow="2"
     inkscape:zoom="9.078125"
     inkscape:cx="32"
     inkscape:cy="32"
     inkscape:document-units="px"
     inkscape:current-layer="g4152"
     showgrid="false"
     units="px" />
  <metadata
     id="metadata7">
    <rdf:RDF>
      <cc:Work
         rdf:about="">
        <dc:format>image/svg+xml</dc:format>
        <dc:type
           rdf:resource="http://purl.org/dc/dcmitype/StillImage" />
        <dc:title></dc:title>
      </cc:Work>
    </rdf:RDF>
  </metadata>
  <g
     inkscape:label="Laag 1"
     inkscape:groupmode="layer"
     id="layer1"
     transform="translate(0,-280.06665)">
    <g
       id="g4152">
      <path
         style="fill:#020202;stroke-width:1"
         d="m 11.296779,294.85291 c -0.384852,-0.0615 -0.722934,-0.16054 -1.4201282,-0.41621 -1.2869301,-0.47193 -1.603304,-0.62278 -2.3533546,-1.12211 -1.6008476,-1.06571 -3.444516,-3.02016 -4.2467454,-4.50193 -0.1345128,-0.24845 -0.3373165,-0.68394 -0.4229648,-0.90825 -0.3947059,-1.03374 -0.5843935,-1.60166 -0.6708371,-2.00847 -0.046884,-0.22064 -0.054019,-0.30236 -0.054912,-0.62891 -8.734e-4,-0.31946 0.00618,-0.41005 0.047362,-0.60863 0.122644,-0.59134 0.3914327,-1.16242 0.8010469,-1.70196 0.1746523,-0.23004 0.3188838,-0.36226 0.4976122,-0.45614 0.3564795,-0.18726 1.2531672,-0.36922 1.4687907,-0.29806 0.088828,0.0293 0.2114566,0.16274 0.3182575,0.34626 0.042208,0.0725 0.2249282,0.40118 0.4060446,0.73035 0.4554492,0.82774 0.5699683,1.02522 0.7709338,1.32938 0.2250485,0.34061 0.2705603,0.43617 0.280362,0.58863 0.00623,0.0969 -0.00187,0.1433 -0.038693,0.22164 -0.068357,0.14542 -0.3793445,0.45765 -0.7774591,0.78055 -0.3974879,0.3224 -0.6575443,0.57198 -0.7366777,0.70701 -0.073883,0.12608 -0.071674,0.25165 0.00775,0.4405 0.077331,0.18388 0.5866503,1.03394 0.8367572,1.39656 0.7857102,1.13916 1.6350178,1.90917 3.0146547,2.73319 0.8693473,0.51924 0.9415168,0.52662 1.3292823,0.13581 0.09143,-0.0922 0.291728,-0.32274 0.44511,-0.51243 0.319202,-0.39476 0.636285,-0.71052 0.782519,-0.77926 0.07834,-0.0368 0.124732,-0.0449 0.221644,-0.0387 0.15246,0.01 0.248013,0.0553 0.588627,0.28036 0.304165,0.20097 0.50164,0.31549 1.329384,0.77094 0.329165,0.18111 0.657823,0.36383 0.730351,0.40604 0.183521,0.1068 0.316935,0.22943 0.346251,0.31826 0.06618,0.20052 -0.09599,1.04166 -0.273003,1.416 -0.0937,0.19816 -0.205209,0.33012 -0.43053,0.5095 -0.517742,0.41218 -1.116502,0.70332 -1.712047,0.83248 -0.297408,0.0645 -0.806507,0.0821 -1.085383,0.0376 z"
         id="path4154"
         inkscape:connector-curvature="0" />
    </g>
  </g>
</svg>
